<!DOCTYPE svg PUBLIC "-//W3C//DTD SVG 1.1//EN" "http://www.w3.org/Graphics/SVG/1.1/DTD/svg11.dtd">
<!-- Uploaded to: SVG Repo, www.svgrepo.com, Transformed by: SVG Repo Mixer Tools -->
<svg width="800px" height="800px" viewBox="-2.4 -2.4 28.80 28.80" id="Layer_1" data-name="Layer 1" xmlns="http://www.w3.org/2000/svg" fill="000000" stroke="000000" transform="matrix(-1, 0, 0, -1, 0, 0)rotate(0)">
<g id="SVGRepo_bgCarrier" stroke-width="0"/>
<g id="SVGRepo_tracerCarrier" stroke-linecap="round" stroke-linejoin="round" stroke="#CCCCCC" stroke-width="4.8">
<defs>
<style>.cls-1{fill:none;stroke:#a259ff;stroke-miterlimit:10;stroke-width:1.91px;}</style>
</defs>
<polygon class="cls-1" points="20.59 6.27 20.59 7.23 14.86 7.23 14.86 1.5 15.82 1.5 20.59 6.27"/>
<polygon class="cls-1" points="20.59 12 17.73 13.91 14.86 12 11.99 13.91 9.14 12 6.27 13.91 3.41 12 3.41 1.5 15.82 1.5 20.59 6.27 20.59 12"/>
<polygon class="cls-1" points="20.59 15.82 17.73 17.73 14.86 15.82 11.99 17.73 9.14 15.82 6.27 17.73 3.41 15.82 3.41 22.5 20.59 22.5 20.59 15.82"/>
</g>
<g id="SVGRepo_iconCarrier">
<defs>
<style>.cls-1{fill:none;stroke:#a259ff;stroke-miterlimit:10;stroke-width:1.91px;}</style>
</defs>
<polygon class="cls-1" points="20.59 6.27 20.59 7.23 14.86 7.23 14.86 1.5 15.82 1.5 20.59 6.27"/>
<polygon class="cls-1" points="20.59 12 17.73 13.91 14.86 12 11.99 13.91 9.14 12 6.27 13.91 3.41 12 3.41 1.5 15.82 1.5 20.59 6.27 20.59 12"/>
<polygon class="cls-1" points="20.59 15.82 17.73 17.73 14.86 15.82 11.99 17.73 9.14 15.82 6.27 17.73 3.41 15.82 3.41 22.5 20.59 22.5 20.59 15.82"/>
</g>
</svg>