<svg width="159" height="32" viewBox="0 0 159 32" fill="none" xmlns="http://www.w3.org/2000/svg">
<path d="M12.293 19.5C13.1214 19.5 13.793 18.8284 13.793 18C13.793 17.1716 13.1214 16.5 12.293 16.5C11.4645 16.5 10.793 17.1716 10.793 18C10.793 18.8284 11.4645 19.5 12.293 19.5Z" fill="#858584"/>
<path d="M20.293 19.5C21.1214 19.5 21.793 18.8284 21.793 18C21.793 17.1716 21.1214 16.5 20.293 16.5C19.4645 16.5 18.793 17.1716 18.793 18C18.793 18.8284 19.4645 19.5 20.293 19.5Z" fill="#858584"/>
<path fill-rule="evenodd" clip-rule="evenodd" d="M16.2856 10.0006C14.1178 9.98454 11.9608 10.3065 9.89211 10.9548C9.3651 11.12 8.80398 10.8267 8.63881 10.2997C8.47364 9.77266 8.76697 9.21154 9.29397 9.04637C11.5586 8.33661 13.9199 7.98379 16.293 8.00057C18.6662 7.98379 21.0275 8.33661 23.2921 9.04637C23.8191 9.21154 24.1124 9.77266 23.9473 10.2997C23.7821 10.8267 23.221 11.12 22.694 10.9548C20.6253 10.3065 18.4683 9.98454 16.3004 10.0006H16.2856Z" fill="#858584"/>
<path fill-rule="evenodd" clip-rule="evenodd" d="M8.63881 21.7012C8.80398 21.1742 9.3651 20.8809 9.89211 21.046C11.9608 21.6944 14.1178 22.0163 16.2856 22.0003H16.3004C18.4683 22.0163 20.6253 21.6944 22.694 21.046C23.221 20.8809 23.7821 21.1742 23.9473 21.7012C24.1124 22.2282 23.8191 22.7893 23.2921 22.9545C21.0275 23.6643 18.6662 24.0171 16.293 24.0003C13.9199 24.0171 11.5586 23.6643 9.29397 22.9545C8.76697 22.7893 8.47364 22.2282 8.63881 21.7012Z" fill="#858584"/>
<path fill-rule="evenodd" clip-rule="evenodd" d="M20.5124 4.81024C20.9429 4.56754 21.4476 4.4917 21.9303 4.59714C23.2479 4.88268 24.5378 5.28326 25.7853 5.79426C26.0661 5.90254 26.3183 6.07398 26.5224 6.29541C26.7286 6.5192 26.88 6.78788 26.9645 7.08017L31.2003 21.2246C31.3108 21.593 31.3134 21.9855 31.2077 22.3554C31.102 22.7253 30.8925 23.0571 30.604 23.3116L30.5989 23.3161C28.5314 25.1151 25.73 26.4767 22.5481 27.2567C22.1061 27.3694 21.6387 27.3256 21.2252 27.1326C20.8134 26.9404 20.4806 26.6122 20.2828 26.2035L18.7745 23.2119C18.5259 22.7188 18.7241 22.1174 19.2173 21.8688C19.7104 21.6202 20.3118 21.8184 20.5604 22.3115L22.0729 25.3115L22.074 25.3137C25.0119 24.5933 27.506 23.3562 29.286 21.8073L29.9425 22.5617L29.2809 21.8119C29.2827 21.8103 29.284 21.8082 29.2846 21.8059C29.2853 21.8036 29.2853 21.8012 29.2846 21.7989L25.0485 7.65368C25.045 7.65227 25.0414 7.65084 25.0379 7.64939C23.895 7.18051 22.713 6.81314 21.5057 6.55155L21.5035 6.55107C21.5005 6.55042 21.4974 6.55089 21.4947 6.5524C21.4923 6.55375 21.4904 6.55587 21.4893 6.5584L20.5044 9.53807C20.3311 10.0625 19.7655 10.347 19.2411 10.1737C18.7167 10.0004 18.4322 9.43476 18.6055 8.91038L19.5959 5.91419C19.7554 5.44609 20.0817 5.05312 20.5124 4.81024Z" fill="#858584"/>
<path fill-rule="evenodd" clip-rule="evenodd" d="M11.0912 6.5524C11.0885 6.55089 11.0854 6.55042 11.0824 6.55107L11.0802 6.55155C9.87285 6.81314 8.69089 7.18051 7.54798 7.64939C7.54446 7.65084 7.54092 7.65227 7.53737 7.65368L3.30139 21.7986C3.30071 21.8009 3.30061 21.8036 3.30126 21.8059C3.30185 21.808 3.30297 21.8099 3.30449 21.8114C5.08418 23.3583 7.57657 24.5939 10.5119 25.3137L10.513 25.3115L12.0255 22.3115C12.2741 21.8184 12.8755 21.6202 13.3686 21.8688C13.8618 22.1174 14.06 22.7188 13.8114 23.2119L12.3031 26.2035C12.1052 26.6122 11.7724 26.9404 11.3607 27.1326C10.9472 27.3256 10.4798 27.3694 10.0378 27.2567C6.85584 26.4767 4.05447 25.1151 1.98701 23.3161L1.98183 23.3116C1.69336 23.0571 1.4839 22.7252 1.37821 22.3554C1.27256 21.9856 1.27508 21.5932 1.38546 21.2248C1.38543 21.2249 1.38549 21.2248 1.38546 21.2248L5.62136 7.08019C5.70588 6.78789 5.85723 6.51921 6.06348 6.29541C6.26754 6.07398 6.51976 5.90254 6.80056 5.79426C8.04843 5.28312 9.33874 4.88246 10.6567 4.5969C11.1391 4.49181 11.6433 4.56772 12.0735 4.81024C12.5042 5.05312 12.8305 5.4461 12.99 5.9142L12.9929 5.92287L13.9804 8.91038C14.1537 9.43476 13.8692 10.0004 13.3448 10.1737C12.8204 10.347 12.2548 10.0624 12.0815 9.53807L11.0965 6.55839C11.0955 6.55586 11.0936 6.55375 11.0912 6.5524Z" fill="#858584"/>
<path d="M12.293 19.5C13.1214 19.5 13.793 18.8284 13.793 18C13.793 17.1716 13.1214 16.5 12.293 16.5C11.4645 16.5 10.793 17.1716 10.793 18C10.793 18.8284 11.4645 19.5 12.293 19.5Z" fill="#858584"/>
<path d="M20.293 19.5C21.1214 19.5 21.793 18.8284 21.793 18C21.793 17.1716 21.1214 16.5 20.293 16.5C19.4645 16.5 18.793 17.1716 18.793 18C18.793 18.8284 19.4645 19.5 20.293 19.5Z" fill="#858584"/>
<path fill-rule="evenodd" clip-rule="evenodd" d="M16.2856 10.0006C14.1178 9.98454 11.9608 10.3065 9.89211 10.9548C9.3651 11.12 8.80398 10.8267 8.63881 10.2997C8.47364 9.77266 8.76697 9.21154 9.29397 9.04637C11.5586 8.33661 13.9199 7.98379 16.293 8.00057C18.6662 7.98379 21.0275 8.33661 23.2921 9.04637C23.8191 9.21154 24.1124 9.77266 23.9473 10.2997C23.7821 10.8267 23.221 11.12 22.694 10.9548C20.6253 10.3065 18.4683 9.98454 16.3004 10.0006H16.2856Z" fill="#858584"/>
<path fill-rule="evenodd" clip-rule="evenodd" d="M8.63881 21.7012C8.80398 21.1742 9.3651 20.8809 9.89211 21.046C11.9608 21.6944 14.1178 22.0163 16.2856 22.0003H16.3004C18.4683 22.0163 20.6253 21.6944 22.694 21.046C23.221 20.8809 23.7821 21.1742 23.9473 21.7012C24.1124 22.2282 23.8191 22.7893 23.2921 22.9545C21.0275 23.6643 18.6662 24.0171 16.293 24.0003C13.9199 24.0171 11.5586 23.6643 9.29397 22.9545C8.76697 22.7893 8.47364 22.2282 8.63881 21.7012Z" fill="#858584"/>
<path fill-rule="evenodd" clip-rule="evenodd" d="M20.5124 4.81024C20.9429 4.56754 21.4476 4.4917 21.9303 4.59714C23.2479 4.88268 24.5378 5.28326 25.7853 5.79426C26.0661 5.90254 26.3183 6.07398 26.5224 6.29541C26.7286 6.5192 26.88 6.78788 26.9645 7.08017L31.2003 21.2246C31.3108 21.593 31.3134 21.9855 31.2077 22.3554C31.102 22.7253 30.8925 23.0571 30.604 23.3116L30.5989 23.3161C28.5314 25.1151 25.73 26.4767 22.5481 27.2567C22.1061 27.3694 21.6387 27.3256 21.2252 27.1326C20.8134 26.9404 20.4806 26.6122 20.2828 26.2035L18.7745 23.2119C18.5259 22.7188 18.7241 22.1174 19.2173 21.8688C19.7104 21.6202 20.3118 21.8184 20.5604 22.3115L22.0729 25.3115L22.074 25.3137C25.0119 24.5933 27.506 23.3562 29.286 21.8073L29.9425 22.5617L29.2809 21.8119C29.2827 21.8103 29.284 21.8082 29.2846 21.8059C29.2853 21.8036 29.2853 21.8012 29.2846 21.7989L25.0485 7.65368C25.045 7.65227 25.0414 7.65084 25.0379 7.64939C23.895 7.18051 22.713 6.81314 21.5057 6.55155L21.5035 6.55107C21.5005 6.55042 21.4974 6.55089 21.4947 6.5524C21.4923 6.55375 21.4904 6.55587 21.4893 6.5584L20.5044 9.53807C20.3311 10.0625 19.7655 10.347 19.2411 10.1737C18.7167 10.0004 18.4322 9.43476 18.6055 8.91038L19.5959 5.91419C19.7554 5.44609 20.0817 5.05312 20.5124 4.81024Z" fill="#858584"/>
<path fill-rule="evenodd" clip-rule="evenodd" d="M11.0912 6.5524C11.0885 6.55089 11.0854 6.55042 11.0824 6.55107L11.0802 6.55155C9.87285 6.81314 8.69089 7.18051 7.54798 7.64939C7.54446 7.65084 7.54092 7.65227 7.53737 7.65368L3.30139 21.7986C3.30071 21.8009 3.30061 21.8036 3.30126 21.8059C3.30185 21.808 3.30297 21.8099 3.30449 21.8114C5.08418 23.3583 7.57657 24.5939 10.5119 25.3137L10.513 25.3115L12.0255 22.3115C12.2741 21.8184 12.8755 21.6202 13.3686 21.8688C13.8618 22.1174 14.06 22.7188 13.8114 23.2119L12.3031 26.2035C12.1052 26.6122 11.7724 26.9404 11.3607 27.1326C10.9472 27.3256 10.4798 27.3694 10.0378 27.2567C6.85584 26.4767 4.05447 25.1151 1.98701 23.3161L1.98183 23.3116C1.69336 23.0571 1.4839 22.7252 1.37821 22.3554C1.27256 21.9856 1.27508 21.5932 1.38546 21.2248C1.38543 21.2249 1.38549 21.2248 1.38546 21.2248L5.62136 7.08019C5.70588 6.78789 5.85723 6.51921 6.06348 6.29541C6.26754 6.07398 6.51976 5.90254 6.80056 5.79426C8.04843 5.28312 9.33874 4.88246 10.6567 4.5969C11.1391 4.49181 11.6433 4.56772 12.0735 4.81024C12.5042 5.05312 12.8305 5.4461 12.99 5.9142L12.9929 5.92287L13.9804 8.91038C14.1537 9.43476 13.8692 10.0004 13.3448 10.1737C12.8204 10.347 12.2548 10.0624 12.0815 9.53807L11.0965 6.55839C11.0955 6.55586 11.0936 6.55375 11.0912 6.5524Z" fill="#858584"/>
<path fill-rule="evenodd" clip-rule="evenodd" d="M55.8211 11.1183C56.1463 10.9443 56.5408 10.9634 56.8477 11.168L62.8477 15.168C63.1259 15.3534 63.293 15.6656 63.293 16C63.293 16.3344 63.1259 16.6466 62.8477 16.8321L56.8477 20.8321C56.5408 21.0366 56.1463 21.0557 55.8211 20.8817C55.496 20.7077 55.293 20.3688 55.293 20V12C55.293 11.6312 55.496 11.2923 55.8211 11.1183ZM57.293 13.8685V18.1315L60.4902 16L57.293 13.8685Z" fill="#858584"/>
<path fill-rule="evenodd" clip-rule="evenodd" d="M58.2915 5.05082L58.2746 5.05078L58.2118 5.05081C58.1573 5.05093 58.0779 5.05133 57.9761 5.05241C57.7724 5.05457 57.4786 5.05947 57.1136 5.07043C56.3841 5.09232 55.3675 5.13847 54.2167 5.23563C51.9403 5.42782 49.0422 5.82669 46.811 6.6792L46.7964 6.68495C46.3581 6.86039 45.9672 7.13637 45.6551 7.49064C45.3431 7.84491 45.1187 8.26755 45.0001 8.72447L44.9991 8.72824C44.6877 9.9468 44.293 12.2065 44.293 16.0008C44.293 19.7952 44.6877 22.0549 44.9991 23.2734L45.0001 23.2772C45.1187 23.7341 45.3431 24.1568 45.6551 24.511C45.9672 24.8653 46.3581 25.1413 46.7964 25.3167L46.811 25.3225C49.0422 26.175 51.9403 26.5739 54.2167 26.766C55.3675 26.8632 56.3841 26.9094 57.1136 26.9312C57.4786 26.9422 57.7724 26.9471 57.9761 26.9493C58.0779 26.9504 58.1573 26.9507 58.2118 26.9509L58.2746 26.9509L58.2915 26.9509H58.2945L58.3113 26.9509L58.3741 26.9509C58.4286 26.9507 58.508 26.9504 58.6099 26.9493C58.8135 26.9471 59.1074 26.9422 59.4724 26.9312C60.2018 26.9094 61.2184 26.8632 62.3693 26.766C64.6456 26.5739 67.5437 26.175 69.7749 25.3225L69.7896 25.3167C70.2279 25.1413 70.6188 24.8653 70.9308 24.511C71.2428 24.1568 71.4672 23.7341 71.5859 23.2772L71.5868 23.2734C71.8982 22.0549 72.293 19.7952 72.293 16.0008C72.293 12.2065 71.8982 9.9468 71.5868 8.72824L71.5859 8.72447C71.4672 8.26755 71.2428 7.84491 70.9308 7.49064C70.6188 7.13637 70.2279 6.86039 69.7896 6.68495L69.7749 6.6792C67.5437 5.82669 64.6456 5.42782 62.3693 5.23563C61.2184 5.13847 60.2018 5.09232 59.4724 5.07043C59.1074 5.05947 58.8135 5.05457 58.6099 5.05241C58.508 5.05133 58.4286 5.05093 58.3741 5.05081L58.3113 5.05078L58.2945 5.05082H58.2915ZM58.2877 24.9509L58.2984 24.9508L58.3016 24.9509L58.3147 24.9509L58.3697 24.9509C58.4188 24.9508 58.4926 24.9504 58.5886 24.9494C58.7807 24.9473 59.0616 24.9427 59.4124 24.9321C60.1146 24.9111 61.0941 24.8666 62.201 24.7731C64.4371 24.5843 67.0971 24.2028 69.0526 23.4574C69.1974 23.3984 69.3265 23.3066 69.4299 23.1892C69.5344 23.0705 69.6097 22.929 69.6497 22.7761C69.9132 21.7438 70.293 19.6539 70.293 16.0008C70.293 12.3478 69.9132 10.2578 69.6497 9.22562C69.6097 9.07265 69.5344 8.93117 69.4299 8.81251C69.3265 8.69512 69.1974 8.60331 69.0526 8.54424C67.0971 7.79889 64.4371 7.41733 62.201 7.22854C61.0941 7.13509 60.1146 7.09061 59.4124 7.06953C59.0616 7.059 58.7807 7.05433 58.5886 7.0523C58.4926 7.05128 58.4188 7.05092 58.3697 7.05081L58.3147 7.05078L58.3016 7.05081L58.2987 7.05082L58.2876 7.05088L58.2844 7.05081L58.2713 7.05078L58.2163 7.05081C58.1671 7.05092 58.0933 7.05128 57.9973 7.0523C57.8052 7.05433 57.5244 7.059 57.1736 7.06953C56.4713 7.09061 55.4918 7.13509 54.3849 7.22854C52.1489 7.41733 49.4889 7.79889 47.5334 8.54424C47.3886 8.60331 47.2594 8.69513 47.156 8.81251C47.0515 8.93117 46.9763 9.07265 46.9363 9.22562C46.6727 10.2578 46.293 12.3478 46.293 16.0008C46.293 19.6539 46.6727 21.7438 46.9363 22.7761C46.9763 22.929 47.0515 23.0705 47.156 23.1892C47.2594 23.3066 47.3886 23.3984 47.5333 23.4574C49.4889 24.2028 52.1489 24.5843 54.3849 24.7731C55.4918 24.8666 56.4713 24.9111 57.1736 24.9321C57.5244 24.9427 57.8052 24.9473 57.9973 24.9494C58.0933 24.9504 58.1671 24.9508 58.2163 24.9509L58.2713 24.9509L58.2844 24.9509L58.2877 24.9509Z" fill="#858584"/>
<path d="M100.293 11.0005C100.293 8.25045 102.605 5.96295 105.355 6.00045C106.318 6.01157 107.258 6.3006 108.06 6.8328C108.863 7.365 109.495 8.11771 109.88 9.00045H114.293L110.255 13.038C109.995 17.0937 108.199 20.8979 105.234 23.6773C102.269 26.4566 98.3567 28.0025 94.2927 28.0005C90.2927 28.0005 89.2927 26.5005 89.2927 26.5005C89.2927 26.5005 93.2927 25.0005 95.2927 22.0005C95.2927 22.0005 87.2927 18.0005 89.2927 7.00045C89.2927 7.00045 94.2927 12.0005 100.293 13.0005V11.0005Z" stroke="#858584" stroke-width="2" stroke-linecap="round" stroke-linejoin="round"/>
<path fill-rule="evenodd" clip-rule="evenodd" d="M142.293 12C140.084 12 138.293 13.7909 138.293 16C138.293 18.2091 140.084 20 142.293 20C144.502 20 146.293 18.2091 146.293 16C146.293 13.7909 144.502 12 142.293 12ZM136.293 16C136.293 12.6863 138.979 10 142.293 10C145.607 10 148.293 12.6863 148.293 16C148.293 19.3137 145.607 22 142.293 22C138.979 22 136.293 19.3137 136.293 16Z" fill="#858584"/>
<path fill-rule="evenodd" clip-rule="evenodd" d="M136.793 5.5C134.032 5.5 131.793 7.73858 131.793 10.5V21.5C131.793 24.2614 134.032 26.5 136.793 26.5H147.793C150.554 26.5 152.793 24.2614 152.793 21.5V10.5C152.793 7.73858 150.554 5.5 147.793 5.5H136.793ZM129.793 10.5C129.793 6.63401 132.927 3.5 136.793 3.5H147.793C151.659 3.5 154.793 6.63401 154.793 10.5V21.5C154.793 25.366 151.659 28.5 147.793 28.5H136.793C132.927 28.5 129.793 25.366 129.793 21.5V10.5Z" fill="#858584"/>
<path d="M148.793 11C149.621 11 150.293 10.3284 150.293 9.5C150.293 8.67157 149.621 8 148.793 8C147.965 8 147.293 8.67157 147.293 9.5C147.293 10.3284 147.965 11 148.793 11Z" fill="#858584"/>
</svg>
